<?xml version="1.0" encoding="UTF-8" standalone="no"?>
<!-- Created with Inkscape (http://www.inkscape.org/) -->

<svg
   xmlns:dc="http://purl.org/dc/elements/1.1/"
   xmlns:cc="http://creativecommons.org/ns#"
   xmlns:rdf="http://www.w3.org/1999/02/22-rdf-syntax-ns#"
   xmlns:svg="http://www.w3.org/2000/svg"
   xmlns="http://www.w3.org/2000/svg"
   xmlns:sodipodi="http://sodipodi.sourceforge.net/DTD/sodipodi-0.dtd"
   xmlns:inkscape="http://www.inkscape.org/namespaces/inkscape"
   width="20.145676mm"
   height="34.567623mm"
   viewBox="0 0 71.382315 122.4837"
   id="svg5223"
   version="1.1"
   inkscape:version="0.91 r13725"
   sodipodi:docname="mix-and-match-characters22.svg">
  <defs
     id="defs5225" />
  <sodipodi:namedview
     id="base"
     pagecolor="#ffffff"
     bordercolor="#666666"
     borderopacity="1.0"
     inkscape:pageopacity="0.0"
     inkscape:pageshadow="2"
     inkscape:zoom="0.98994949"
     inkscape:cx="77.92148"
     inkscape:cy="24.663039"
     inkscape:document-units="px"
     inkscape:current-layer="layer1"
     showgrid="false"
     fit-margin-top="0"
     fit-margin-left="0"
     fit-margin-right="0"
     fit-margin-bottom="0"
     inkscape:window-width="1615"
     inkscape:window-height="1026"
     inkscape:window-x="1985"
     inkscape:window-y="24"
     inkscape:window-maximized="1" />
  <metadata
     id="metadata5228">
    <rdf:RDF>
      <cc:Work
         rdf:about="">
        <dc:format>image/svg+xml</dc:format>
        <dc:type
           rdf:resource="http://purl.org/dc/dcmitype/StillImage" />
        <dc:title></dc:title>
      </cc:Work>
    </rdf:RDF>
  </metadata>
  <g
     inkscape:label="Layer 1"
     inkscape:groupmode="layer"
     id="layer1"
     transform="translate(-192.40781,-372.3186)">
    <g
       transform="translate(78.564408,-365.8306)"
       id="g6313">
      <path
         id="path3954-8-5-3-0-1-4-1-0-3-30-7-3"
         d="m 181.15607,828.66837 c -1.30071,2.7247 -4.66812,4.35654 -7.52136,3.64482 -2.85324,-0.71172 -4.11181,-3.49748 -2.81111,-6.22218 1.30071,-2.72471 4.66812,-4.35655 7.52137,-3.64483 2.85324,0.71173 4.1118,3.49749 2.8111,6.22219 z"
         inkscape:connector-curvature="0"
         style="fill:#ab926c;fill-rule:evenodd;stroke:#000000;stroke-width:1.79010785;stroke-linecap:round;stroke-linejoin:round" />
      <path
         id="path4553-8-2-8-8-9-0-6-22-9-1"
         d="m 164.2717,828.25 c 0.85824,2.2748 17.268,-3.7223 16.446,-6.3367 -7.7437,-33.351 -15.305,-30.425 -18.197,-29.778 -4.3242,3.3367 -3.0496,14.849 1.7504,36.114 z"
         inkscape:connector-curvature="0"
         style="fill:#3c497e;stroke:#000000;stroke-width:1.42690003" />
      <rect
         id="rect3252-6-7-2-7-1-6-3-5-6-5-5-5"
         rx="24.969999"
         ry="8.8413095"
         transform="matrix(1,-7.6208e-5,0.0014447,0.99999896,0,0)"
         width="50.813"
         y="825.15082"
         x="123.1725"
         height="32.128033"
         style="fill:#241d4a;fill-rule:evenodd;stroke:#000000;stroke-width:1.7112;stroke-linecap:round;stroke-linejoin:round" />
      <path
         id="path3928-9-81-8-0-49-3-5-5-9-1-3"
         d="m 160.6717,855.65 -0.25902,-10.194"
         inkscape:connector-curvature="0"
         style="fill:#ffffff;stroke:#000000;stroke-width:1.13510001;stroke-linecap:round;stroke-linejoin:round" />
      <path
         id="path3932-5-3-3-6-1-5-5-0-2-3-0-2"
         d="m 152.1817,786.85 c -0.0888,0 -0.17801,8e-4 -0.26669,0 -0.0503,0 -0.1007,-0.01 -0.15102,-0.01 -0.0776,0 -0.15691,-0.01 -0.23474,-0.01 l 0,0.021 c -5.9566,0.2086 -11.574,3.9179 -15.403,8.6785 -8.2054,10.135 -11.608,23.659 -12.244,36.7 0.11317,3.3512 -0.60802,7.3537 0.62032,10.286 4.6728,3.2567 13.055,3.9827 18.758,4.8536 1.517,0.1093 3.9292,0.1869 6.5483,0.2651 l 0,0.01 c 0.27499,0.01 0.53655,0.01 0.80764,0.015 0.0269,0 0.0526,9e-4 0.0795,0 2.62,0.046 5.0334,0.083 6.5546,0.046 5.7448,-0.5984 14.156,-0.9246 19.007,-3.9547 1.3926,-2.8703 0.89891,-6.9018 1.2015,-10.243 0.10293,-13.053 -2.5301,-26.721 -10.151,-37.233 -3.5546,-4.9362 -8.9548,-8.9077 -14.892,-9.3995 l 0,-0.03 c -0.0778,0 -0.15696,-0.01 -0.23467,-0.01 z"
         inkscape:connector-curvature="0"
         style="fill:#3c497e;fill-rule:evenodd;stroke:#000000;stroke-width:1.71730006;stroke-linecap:round;stroke-linejoin:round" />
      <path
         id="path4010-7-3-7-4-8-5-4-5-9-1-8-6"
         d="m 184.1217,854.75 c 0,0 -1.3827,-6.5415 -9.9894,-5.7741 -11.578,1.0323 -11.909,7.6248 -11.909,7.6248 -0.67865,2.0421 22.476,0.8225 21.898,-1.8507 z"
         inkscape:connector-curvature="0"
         style="fill:#3f432a;stroke:#000000;stroke-width:1.79009998" />
      <path
         id="path3954-8-5-7-3-4-8-9-1-8-0-5"
         d="m 121.2814,835.72804 c 1.74058,2.46701 5.33459,3.509 8.02747,2.32735 2.69288,-1.18165 3.46485,-4.13945 1.72427,-6.60646 -1.74058,-2.467 -5.33459,-3.50899 -8.02747,-2.32735 -2.69288,1.18165 -3.46485,4.13945 -1.72427,6.60646 z"
         inkscape:connector-curvature="0"
         style="fill:#ab926c;fill-rule:evenodd;stroke:#000000;stroke-width:1.7901212;stroke-linecap:round;stroke-linejoin:round" />
      <path
         id="path4553-7-9-8-3-7-1-79-8-8"
         d="m 133.9117,831.95 c -0.71096,2.4918 -19.905,-1.8053 -19.274,-4.6493 4.9625,-35.944 13.826,-33.794 17.161,-33.466 5.3904,1.1667 5.1215,15.213 2.1125,38.116 z"
         inkscape:connector-curvature="0"
         style="fill:#3c497e;stroke:#000000;stroke-width:1.5618" />
      <rect
         id="rect4240-8-4-1-9-4-0-0"
         rx="29.983999"
         ry="25.957001"
         height="53.703999"
         width="62.653999"
         y="744.95007"
         x="116.2417"
         style="fill:#ab926c;fill-rule:evenodd;stroke:#000000;stroke-width:1.79009998;stroke-linecap:round;stroke-linejoin:bevel" />
      <path
         id="path4010-1-9-2-6-6-6-8-1-7-3-2-4-0"
         d="m 128.6617,856.85 c 0,0 0.97136,-8.201 13.324,-7.6465 16.617,0.746 18.09,8.9309 18.09,8.9309 1.2752,2.5087 -31.829,2.0677 -31.414,-1.2844 z"
         inkscape:connector-curvature="0"
         style="fill:#3f432a;stroke:#000000;stroke-width:1.79009998" />
      <path
         id="path3920-6-93-3-4-1-7-2-9-2-6-0"
         d="m 129.90263,750.08689 c -1.44308,-0.86594 -1.81908,-2.81426 -0.97308,-4.23422 0.99165,-1.66437 3.2135,-2.09648 4.83088,-1.11442 1.88695,1.1458 2.37534,3.70296 1.25508,5.56228 -1.30131,2.15989 -4.19496,2.7171 -6.29667,1.4275 -2.43139,-1.49191 -3.05677,-4.79796 -1.5972,-7.19663 1.68201,-2.76417 5.39723,-3.47316 8.08998,-1.80525 3.09174,1.91503 3.88259,6.13192 2.00799,9.1855 -0.35933,0.58529 -0.80402,1.11668 -1.31447,1.57419"
         inkscape:connector-curvature="0"
         style="fill:#4a2f2b;stroke:#000000;stroke-width:1.21482646;stroke-linecap:round;stroke-linejoin:round" />
      <path
         id="path3920-7-7-5-27-8-9-3-5-7-9-7-2-9"
         d="m 165.23263,751.39689 c -1.44308,-0.86594 -1.81908,-2.81426 -0.97308,-4.23422 0.99165,-1.66437 3.2135,-2.09648 4.83088,-1.11442 1.88695,1.1458 2.37534,3.70296 1.25508,5.56228 -1.30131,2.15989 -4.19496,2.7171 -6.29667,1.4275 -2.43139,-1.49191 -3.05677,-4.79796 -1.5972,-7.19663 1.68201,-2.76417 5.39723,-3.47316 8.08998,-1.80525 3.09174,1.91503 3.88259,6.13192 2.00799,9.1855 -0.35933,0.58529 -0.80402,1.11668 -1.31447,1.57419"
         inkscape:connector-curvature="0"
         style="fill:#4a2f2b;stroke:#000000;stroke-width:1.21482646;stroke-linecap:round;stroke-linejoin:round" />
      <path
         id="path3920-7-7-473-9-4-9-2-5-4-2-1-8"
         d="m 159.70524,748.2426 c 1.64379,-0.98638 2.07209,-3.20571 1.10842,-4.82319 -1.12957,-1.89587 -3.66045,-2.38808 -5.50278,-1.26942 -2.1494,1.30518 -2.70571,4.21802 -1.42965,6.33598 1.48231,2.46032 4.77842,3.09503 7.17245,1.62605 2.76956,-1.69942 3.48192,-5.46534 1.81934,-8.19765 -1.91595,-3.14867 -6.1479,-3.95627 -9.21518,-2.05636 -3.52175,2.1814 -4.42259,6.98485 -2.28726,10.46317 0.40931,0.66671 0.91584,1.27201 1.4973,1.79316"
         inkscape:connector-curvature="0"
         style="fill:#4a2f2b;stroke:#000000;stroke-width:1.38379753;stroke-linecap:round;stroke-linejoin:round" />
      <path
         id="path3920-7-6-47-3-3-9-9-4-5-3-3-4-2"
         d="m 120.9952,754.2399 c -1.21325,-0.63036 -1.52936,-2.04865 -0.8181,-3.08233 0.83371,-1.21159 2.70169,-1.52614 4.06148,-0.81125 1.58641,0.8341 1.99702,2.6956 1.05518,4.04911 -1.09405,1.5723 -3.52683,1.97793 -5.29381,1.03916 -2.04415,-1.08605 -2.56993,-3.49272 -1.34282,-5.23884 1.41412,-2.0122 4.53763,-2.52831 6.80151,-1.31415 2.59933,1.39406 3.26422,4.46378 1.68818,6.68665 -0.3021,0.42607 -0.67596,0.8129 -1.10512,1.14595"
         inkscape:connector-curvature="0"
         style="fill:#4a2f2b;stroke:#000000;stroke-width:1.21486998;stroke-linecap:round;stroke-linejoin:round" />
      <path
         id="path3920-7-7-50-9-4-5-7-3-1-5-7-6-2"
         d="m 141.65249,748.04797 c -1.60745,-0.96452 -2.02627,-3.13467 -1.08391,-4.71631 1.10459,-1.85386 3.5795,-2.33516 5.3811,-1.24129 2.10187,1.27626 2.64588,4.12455 1.39803,6.19557 -1.44953,2.4058 -4.67275,3.02645 -7.01384,1.59003 -2.70832,-1.66177 -3.40493,-5.34424 -1.77911,-8.016 1.87357,-3.07889 6.01195,-3.8686 9.0114,-2.01079 3.44388,2.13306 4.3248,6.83007 2.23669,10.23131 -0.40025,0.65193 -0.89559,1.24382 -1.46419,1.75342"
         inkscape:connector-curvature="0"
         style="fill:#4a2f2b;stroke:#000000;stroke-width:1.35316598;stroke-linecap:round;stroke-linejoin:round" />
      <path
         id="path3781-5-5-2-9-8-5-1-1-7-2-8"
         d="m 172.67719,769.65725 c 0,1.2584 -0.87287,2.27852 -1.94955,2.27852 -1.07673,0 -1.94954,-1.02012 -1.94954,-2.27852 0,-1.2584 0.87286,-2.27852 1.94954,-2.27852 1.07674,0 1.94955,1.02012 1.94955,2.27852 z"
         inkscape:connector-curvature="0"
         style="fill-rule:evenodd" />
      <path
         id="path3781-5-5-9-9-0-9-4-1-2-2-3-8"
         d="m 153.23719,770.25725 c 0,1.2584 -0.87287,2.27852 -1.94955,2.27852 -1.07673,0 -1.94954,-1.02012 -1.94954,-2.27852 0,-1.2584 0.87286,-2.27852 1.94954,-2.27852 1.07674,0 1.94955,1.02012 1.94955,2.27852 z"
         inkscape:connector-curvature="0"
         style="fill-rule:evenodd" />
      <path
         id="path4438-6-3-3-0-4-0-3-5"
         d="m 144.3217,768.85 9.6419,-0.087"
         inkscape:connector-curvature="0"
         style="fill:none;stroke:#000000;stroke-width:1.70739996;stroke-linecap:round;stroke-linejoin:round" />
      <path
         id="path4438-6-6-0-4-6-2-7-0-3"
         d="m 163.6117,768.25 9.6419,-0.087"
         inkscape:connector-curvature="0"
         style="fill:none;stroke:#000000;stroke-width:1.70739996;stroke-linecap:round;stroke-linejoin:round" />
      <path
         id="path4494-6-5-5-2"
         d="m 123.91923,777.54144 c -0.81665,0.73913 -2.26091,0.4212 -3.14295,-0.47969 -1.21518,-1.24113 -1.11579,-3.03719 -0.07,-3.96105 0.60943,-0.53835 1.48036,-0.77162 2.38427,-0.68299"
         inkscape:connector-curvature="0"
         style="fill:none;stroke:#000000;stroke-width:1.31816137;stroke-linecap:round;stroke-linejoin:round" />
      <path
         id="path3920-7-6-47-3-3-9-9-4-5-3-3-0-8-3"
         d="m 118.1496,759.84643 c -0.92248,-0.47929 -1.16284,-1.55768 -0.62203,-2.34363 0.6339,-0.92123 2.05421,-1.1604 3.08812,-0.61683 1.20622,0.6342 1.51842,2.04958 0.8023,3.07872 -0.83186,1.19549 -2.68161,1.50391 -4.02512,0.79012 -1.55426,-0.82577 -1.95403,-2.65567 -1.021,-3.98333 1.07521,-1.52997 3.45015,-1.92239 5.17148,-0.99921 1.97638,1.05997 2.48193,3.39402 1.2836,5.08417 -0.2297,0.32396 -0.51396,0.61808 -0.84027,0.87131"
         inkscape:connector-curvature="0"
         style="fill:#4a2f2b;stroke:#000000;stroke-width:0.92372;stroke-linecap:round;stroke-linejoin:round" />
      <path
         id="path7438-9-0"
         d="m 157.45968,782.7412 c 0,1.5806 -1.75141,2.86195 -3.91193,2.86195 -2.16052,0 -3.91193,-1.28135 -3.91193,-2.86195 0,-1.58059 1.75141,-2.86195 3.91193,-2.86195 2.16052,0 3.91193,1.28136 3.91193,2.86195 z"
         inkscape:connector-curvature="0"
         style="opacity:0.98999999;fill:#ad656e;fill-rule:evenodd;stroke:#000000;stroke-width:1.50001073;stroke-linecap:round;stroke-linejoin:round" />
      <path
         id="path7472-3-5"
         d="m 144.5617,816.95 c -1.2008,-1.5574 -2.9319,-4.3779 -0.93947,-6.0227 1.3524,-1.5282 3.8071,-0.1308 2.9647,1.9535 -0.98338,1.7477 0.94498,4.0141 2.5879,2.9948 1.4347,-0.7298 1.7526,-3.949 -0.14976,-4.155 -2.1157,1.7148 2.0913,2.9123 1.912,0.3567 -0.60287,-1.8623 1.2553,-3.2407 2.7917,-2.9251 1.2994,0.5598 1.9897,2.9556 1.2535,4.2354 -1.8401,1.9805 -2.7432,-2.3253 -0.3852,-2.1161 1.524,0.015 3.9317,1.2741 4.515,-1.1497 0.0519,-0.3259 0.008,-0.6638 -0.0964,-0.972"
         inkscape:connector-curvature="0"
         style="fill:none;stroke:#a63b2f;stroke-width:1.57130003;stroke-linecap:round;stroke-linejoin:round" />
    </g>
  </g>
</svg>
